<?xml version="1.0" encoding="UTF-8"?>
<svg width="1104px" height="506px" viewBox="0 0 1104 506" version="1.1" xmlns="http://www.w3.org/2000/svg" xmlns:xlink="http://www.w3.org/1999/xlink">
    <!-- Generator: Sketch 50.2 (55047) - http://www.bohemiancoding.com/sketch -->
    <title>Artboard</title>
    <desc>Created with Sketch.</desc>
    <defs></defs>
    <g id="Artboard" stroke="none" stroke-width="1" fill="none" fill-rule="evenodd" opacity="0.552120536">
        <g id="background-pattern" transform="translate(344.000000, -151.000000)">
            <g id="Group-5">
                <g id="Group-Copy" opacity="0.622098214" transform="translate(421.000000, 237.000000)">
                    <circle id="Oval" stroke="#FFFFFF" opacity="0.436830357" cx="114" cy="40" r="10"></circle>
                    <circle id="Oval-Copy-13" stroke="#FFFFFF" opacity="0.436830357" cx="273" cy="70" r="10"></circle>
                    <circle id="Oval-Copy" stroke="#FFFFFF" opacity="0.436830357" cx="114" cy="99" r="10"></circle>
                    <circle id="Oval-Copy-12" stroke="#FFFFFF" opacity="0.436830357" cx="221" cy="39" r="10"></circle>
                    <circle id="Oval-Copy-8" stroke="#FFFFFF" opacity="0.436830357" cx="114" cy="217" r="10"></circle>
                    <circle id="Oval-Copy-14" stroke="#FFFFFF" opacity="0.436830357" cx="114" cy="337" r="10"></circle>
                    <circle id="Oval-Copy-2" stroke="#FFFFFF" opacity="0.436830357" cx="62" cy="130" r="10"></circle>
                    <circle id="Oval-Copy-9" stroke="#FFFFFF" opacity="0.436830357" cx="169" cy="130" r="10"></circle>
                    <circle id="Oval-Copy-11" stroke="#FFFFFF" opacity="0.436830357" cx="169" cy="10" r="10"></circle>
                    <circle id="Oval-Copy-5" stroke="#FFFFFF" opacity="0.436830357" cx="62" cy="187" r="10"></circle>
                    <circle id="Oval-Copy-15" stroke="#FFFFFF" opacity="0.436830357" cx="62" cy="367" r="10"></circle>
                    <g id="Group-2" transform="translate(8.000000, 9.000000)" fill="#FFFFFF" opacity="0.436830357">
                        <circle id="Oval-2-Copy-13" cx="2" cy="150" r="2"></circle>
                        <circle id="Oval-2-Copy-5" cx="2" cy="30" r="2"></circle>
                        <circle id="Oval-2-Copy-11" cx="54" cy="178" r="2"></circle>
                        <circle id="Oval-2" cx="54" cy="358" r="2"></circle>
                        <circle id="Oval-2-Copy-2" cx="54" cy="121" r="2"></circle>
                        <circle id="Oval-2-Copy" cx="106" cy="328" r="2"></circle>
                        <circle id="Oval-2-Copy-3" cx="106" cy="90" r="2"></circle>
                        <circle id="Oval-2-Copy-12" cx="106" cy="208" r="2"></circle>
                        <circle id="Oval-2-Copy-2" cx="54" cy="61" r="2"></circle>
                        <circle id="Oval-2-Copy-8" cx="265" cy="61" r="2"></circle>
                        <circle id="Oval-2-Copy-4" cx="54" cy="2" r="2"></circle>
                        <circle id="Oval-2-Copy-7" cx="161" cy="2" r="2"></circle>
                        <circle id="Oval-2-Copy-9" cx="161" cy="121" r="2"></circle>
                        <circle id="Oval-2-Copy-10" cx="161" cy="178" r="2"></circle>
                        <circle id="Oval-2-Copy-3" cx="106" cy="31" r="2"></circle>
                        <circle id="Oval-2-Copy-6" cx="213" cy="31" r="2"></circle>
                    </g>
                    <circle id="Oval-Copy-10" stroke="#FFFFFF" opacity="0.436830357" cx="169" cy="187" r="10"></circle>
                    <circle id="Oval-Copy-6" stroke="#FFFFFF" opacity="0.436830357" cx="10" cy="159" r="10"></circle>
                    <circle id="Oval-Copy-7" stroke="#FFFFFF" opacity="0.436830357" cx="10" cy="39" r="10"></circle>
                    <circle id="Oval-Copy-3" stroke="#FFFFFF" opacity="0.436830357" cx="62" cy="70" r="10"></circle>
                    <circle id="Oval-Copy-4" stroke="#FFFFFF" opacity="0.436830357" cx="62" cy="10" r="10"></circle>
                    <path d="M62,177 L62,141" id="Line-2" stroke="#FFFFFF" stroke-width="2" opacity="0.436830357" stroke-linecap="square"></path>
                    <path d="M114,88 L114,51" id="Line-2-Copy-3" stroke="#FFFFFF" stroke-width="2" opacity="0.436830357" stroke-linecap="square"></path>
                    <path d="M264,64 L230,45" id="Line-2-Copy-4" stroke="#FFFFFF" stroke-width="2" opacity="0.436830357" stroke-linecap="square"></path>
                    <path d="M104.171852,64.5372116 L71,46" id="Line-2-Copy-5" stroke="#FFFFFF" stroke-width="2" opacity="0.436830357" stroke-linecap="square" transform="translate(87.585926, 55.268606) scale(-1, 1) translate(-87.585926, -55.268606) "></path>
                    <path d="M105.171852,124.537212 L72,106" id="Line-2-Copy-6" stroke="#FFFFFF" stroke-width="2" opacity="0.436830357" stroke-linecap="square" transform="translate(88.585926, 115.268606) scale(-1, 1) translate(-88.585926, -115.268606) "></path>
                    <path d="M158.343705,212 L122.343705,192" id="Line-2-Copy-7" stroke="#FFFFFF" stroke-width="2" opacity="0.436830357" stroke-linecap="square" transform="translate(140.671852, 202.000000) scale(-1, 1) translate(-140.671852, -202.000000) "></path>
                    <path d="M62,59 L62,21" id="Line-2-Copy" stroke="#FFFFFF" stroke-width="2" opacity="0.436830357" stroke-linecap="square"></path>
                    <path d="M169,176 L169,141" id="Line-2-Copy-2" stroke="#FFFFFF" stroke-width="2" opacity="0.436830357" stroke-linecap="square"></path>
                </g>
                <g id="Group-Copy-2" opacity="0.622098214" transform="translate(252.500000, 188.500000) scale(1, -1) translate(-252.500000, -188.500000) translate(111.000000, 0.000000)">
                    <circle id="Oval" stroke="#FFFFFF" opacity="0.436830357" cx="114" cy="40" r="10"></circle>
                    <circle id="Oval-Copy-13" stroke="#FFFFFF" opacity="0.436830357" cx="273" cy="70" r="10"></circle>
                    <circle id="Oval-Copy" stroke="#FFFFFF" opacity="0.436830357" cx="114" cy="99" r="10"></circle>
                    <circle id="Oval-Copy-12" stroke="#FFFFFF" opacity="0.436830357" cx="221" cy="39" r="10"></circle>
                    <circle id="Oval-Copy-8" stroke="#FFFFFF" opacity="0.436830357" cx="114" cy="217" r="10"></circle>
                    <circle id="Oval-Copy-2" stroke="#FFFFFF" opacity="0.436830357" cx="62" cy="130" r="10"></circle>
                    <circle id="Oval-Copy-9" stroke="#FFFFFF" opacity="0.436830357" cx="169" cy="130" r="10"></circle>
                    <circle id="Oval-Copy-11" stroke="#FFFFFF" opacity="0.436830357" cx="169" cy="10" r="10"></circle>
                    <circle id="Oval-Copy-5" stroke="#FFFFFF" opacity="0.436830357" cx="62" cy="187" r="10"></circle>
                    <g id="Group-2" transform="translate(8.000000, 9.000000)" fill="#FFFFFF" opacity="0.436830357">
                        <circle id="Oval-2-Copy-13" cx="2" cy="150" r="2"></circle>
                        <circle id="Oval-2-Copy-5" cx="2" cy="30" r="2"></circle>
                        <circle id="Oval-2-Copy-11" cx="54" cy="178" r="2"></circle>
                        <circle id="Oval-2-Copy-2" cx="54" cy="121" r="2"></circle>
                        <circle id="Oval-2-Copy-3" cx="106" cy="90" r="2"></circle>
                        <circle id="Oval-2-Copy-12" cx="106" cy="208" r="2"></circle>
                        <circle id="Oval-2-Copy-2" cx="54" cy="61" r="2"></circle>
                        <circle id="Oval-2-Copy-8" cx="265" cy="61" r="2"></circle>
                        <circle id="Oval-2-Copy-4" cx="54" cy="2" r="2"></circle>
                        <circle id="Oval-2-Copy-7" cx="161" cy="2" r="2"></circle>
                        <circle id="Oval-2-Copy-9" cx="161" cy="121" r="2"></circle>
                        <circle id="Oval-2-Copy-10" cx="161" cy="178" r="2"></circle>
                        <circle id="Oval-2-Copy-3" cx="106" cy="31" r="2"></circle>
                        <circle id="Oval-2-Copy-6" cx="213" cy="31" r="2"></circle>
                    </g>
                    <circle id="Oval-Copy-10" stroke="#FFFFFF" opacity="0.436830357" cx="169" cy="187" r="10"></circle>
                    <circle id="Oval-Copy-6" stroke="#FFFFFF" opacity="0.436830357" cx="10" cy="159" r="10"></circle>
                    <circle id="Oval-Copy-7" stroke="#FFFFFF" opacity="0.436830357" cx="10" cy="39" r="10"></circle>
                    <circle id="Oval-Copy-3" stroke="#FFFFFF" opacity="0.436830357" cx="62" cy="70" r="10"></circle>
                    <circle id="Oval-Copy-4" stroke="#FFFFFF" opacity="0.436830357" cx="62" cy="10" r="10"></circle>
                    <path d="M62,177 L62,141" id="Line-2" stroke="#FFFFFF" stroke-width="2" opacity="0.436830357" stroke-linecap="square"></path>
                    <path d="M114,88 L114,51" id="Line-2-Copy-3" stroke="#FFFFFF" stroke-width="2" opacity="0.436830357" stroke-linecap="square"></path>
                    <path d="M264,64 L230,45" id="Line-2-Copy-4" stroke="#FFFFFF" stroke-width="2" opacity="0.436830357" stroke-linecap="square"></path>
                    <path d="M104.171852,64.5372116 L71,46" id="Line-2-Copy-5" stroke="#FFFFFF" stroke-width="2" opacity="0.436830357" stroke-linecap="square" transform="translate(87.585926, 55.268606) scale(-1, 1) translate(-87.585926, -55.268606) "></path>
                    <path d="M105.171852,124.537212 L72,106" id="Line-2-Copy-6" stroke="#FFFFFF" stroke-width="2" opacity="0.436830357" stroke-linecap="square" transform="translate(88.585926, 115.268606) scale(-1, 1) translate(-88.585926, -115.268606) "></path>
                    <path d="M158.343705,212 L122.343705,192" id="Line-2-Copy-7" stroke="#FFFFFF" stroke-width="2" opacity="0.436830357" stroke-linecap="square" transform="translate(140.671852, 202.000000) scale(-1, 1) translate(-140.671852, -202.000000) "></path>
                    <path d="M62,59 L62,21" id="Line-2-Copy" stroke="#FFFFFF" stroke-width="2" opacity="0.436830357" stroke-linecap="square"></path>
                    <path d="M169,176 L169,141" id="Line-2-Copy-2" stroke="#FFFFFF" stroke-width="2" opacity="0.436830357" stroke-linecap="square"></path>
                </g>
                <g id="Group-Copy-2" opacity="0.622098214" transform="translate(141.500000, 588.500000) scale(1, -1) translate(-141.500000, -588.500000) translate(0.000000, 475.000000)">
                    <circle id="Oval" stroke="#FFFFFF" opacity="0.436830357" cx="114" cy="40" r="10"></circle>
                    <circle id="Oval-Copy-13" stroke="#FFFFFF" opacity="0.436830357" cx="273" cy="70" r="10"></circle>
                    <circle id="Oval-Copy" stroke="#FFFFFF" opacity="0.436830357" cx="114" cy="99" r="10"></circle>
                    <circle id="Oval-Copy-12" stroke="#FFFFFF" opacity="0.436830357" cx="221" cy="39" r="10"></circle>
                    <circle id="Oval-Copy-8" stroke="#FFFFFF" opacity="0.436830357" cx="114" cy="217" r="10"></circle>
                    <circle id="Oval-Copy-2" stroke="#FFFFFF" opacity="0.436830357" cx="62" cy="130" r="10"></circle>
                    <circle id="Oval-Copy-9" stroke="#FFFFFF" opacity="0.436830357" cx="169" cy="130" r="10"></circle>
                    <circle id="Oval-Copy-5" stroke="#FFFFFF" opacity="0.436830357" cx="62" cy="187" r="10"></circle>
                    <g id="Group-2" transform="translate(8.000000, 9.000000)" fill="#FFFFFF" opacity="0.436830357">
                        <circle id="Oval-2-Copy-13" cx="2" cy="150" r="2"></circle>
                        <circle id="Oval-2-Copy-11" cx="54" cy="178" r="2"></circle>
                        <circle id="Oval-2-Copy-2" cx="54" cy="121" r="2"></circle>
                        <circle id="Oval-2-Copy-3" cx="106" cy="90" r="2"></circle>
                        <circle id="Oval-2-Copy-12" cx="106" cy="208" r="2"></circle>
                        <circle id="Oval-2-Copy-2" cx="54" cy="61" r="2"></circle>
                        <circle id="Oval-2-Copy-8" cx="265" cy="61" r="2"></circle>
                        <circle id="Oval-2-Copy-9" cx="161" cy="121" r="2"></circle>
                        <circle id="Oval-2-Copy-10" cx="161" cy="178" r="2"></circle>
                    </g>
                    <circle id="Oval-Copy-10" stroke="#FFFFFF" opacity="0.436830357" cx="169" cy="187" r="10"></circle>
                    <circle id="Oval-Copy-6" stroke="#FFFFFF" opacity="0.436830357" cx="10" cy="159" r="10"></circle>
                    <circle id="Oval-Copy-7" stroke="#FFFFFF" opacity="0.436830357" cx="10" cy="39" r="10"></circle>
                    <circle id="Oval-Copy-3" stroke="#FFFFFF" opacity="0.436830357" cx="62" cy="70" r="10"></circle>
                    <path d="M62,177 L62,141" id="Line-2" stroke="#FFFFFF" stroke-width="2" opacity="0.436830357" stroke-linecap="square"></path>
                    <path d="M114,88 L114,51" id="Line-2-Copy-3" stroke="#FFFFFF" stroke-width="2" opacity="0.436830357" stroke-linecap="square"></path>
                    <path d="M264,64 L230,45" id="Line-2-Copy-4" stroke="#FFFFFF" stroke-width="2" opacity="0.436830357" stroke-linecap="square"></path>
                    <path d="M104.171852,64.5372116 L71,46" id="Line-2-Copy-5" stroke="#FFFFFF" stroke-width="2" opacity="0.436830357" stroke-linecap="square" transform="translate(87.585926, 55.268606) scale(-1, 1) translate(-87.585926, -55.268606) "></path>
                    <path d="M105.171852,124.537212 L72,106" id="Line-2-Copy-6" stroke="#FFFFFF" stroke-width="2" opacity="0.436830357" stroke-linecap="square" transform="translate(88.585926, 115.268606) scale(-1, 1) translate(-88.585926, -115.268606) "></path>
                    <path d="M158.343705,212 L122.343705,192" id="Line-2-Copy-7" stroke="#FFFFFF" stroke-width="2" opacity="0.436830357" stroke-linecap="square" transform="translate(140.671852, 202.000000) scale(-1, 1) translate(-140.671852, -202.000000) "></path>
                    <path d="M62,59 L62,21" id="Line-2-Copy" stroke="#FFFFFF" stroke-width="2" opacity="0.436830357" stroke-linecap="square"></path>
                    <path d="M169,176 L169,141" id="Line-2-Copy-2" stroke="#FFFFFF" stroke-width="2" opacity="0.436830357" stroke-linecap="square"></path>
                </g>
            </g>
        </g>
    </g>
</svg>